<svg class="main-svg" xmlns="http://www.w3.org/2000/svg" xmlns:xlink="http://www.w3.org/1999/xlink" width="700" height="500" style="" viewBox="0 0 700 500"><rect x="0" y="0" width="700" height="500" style="fill: rgb(255, 255, 255); fill-opacity: 1;"/><defs id="defs-5b7474"><g class="clips"><clipPath id="clip5b7474xyplot" class="plotclip"><rect width="540" height="380"/></clipPath><clipPath id="clip5b7474xy2plot" class="plotclip"><rect width="540" height="380"/></clipPath><clipPath class="axesclip" id="clip5b7474x"><rect x="80" y="0" width="540" height="500"/></clipPath><clipPath class="axesclip" id="clip5b7474y"><rect x="0" y="40" width="700" height="380"/></clipPath><clipPath class="axesclip" id="clip5b7474xy"><rect x="80" y="40" width="540" height="380"/></clipPath><clipPath class="axesclip" id="clip5b7474y2"><rect x="0" y="40" width="700" height="380"/></clipPath><clipPath class="axesclip" id="clip5b7474xy2"><rect x="80" y="40" width="540" height="380"/></clipPath></g><g class="gradients"/><g class="patterns"/></defs><g class="bglayer"/><g class="layer-below"><g class="imagelayer"/><g class="shapelayer"/></g><g class="cartesianlayer"><g class="subplot xy"><g class="layer-subplot"><g class="shapelayer"/><g class="imagelayer"/></g><g class="minor-gridlayer"><g class="x"/><g class="y"/><g class="y2"/></g><g class="gridlayer"><g class="x"/><g class="y"/><g class="y2"/></g><g class="zerolinelayer"/><g class="layer-between"><g class="shapelayer"/><g class="imagelayer"/></g><path class="xlines-below"/><path class="ylines-below"/><g class="overlines-below"><path class="xy2-x"/><path class="xy2-y"/></g><g class="xaxislayer-below"/><g class="yaxislayer-below"/><g class="overaxes-below"><g class="xy2-x"/><g class="xy2-y"/></g><g class="overplot"><g class="xy" transform="translate(80,40)" clip-path="url(#clip5b7474xyplot)"><g class="scatterlayer mlayer"><g class="trace scatter trace8b1845" style="stroke-miterlimit: 2; opacity: 1;"><g class="fills"/><g class="errorbars"/><g class="lines"><path class="js-line" d="M0,209.37L30,19L60,104.67L90,95.32L120,126.38L150,131.55L180,278L210,343.47L240,346.64L270,353.82L300,358.5L330,360.5L360,359.5L390,358.66L420,359L510,358.66L540,359.5" style="vector-effect: none; fill: none; stroke: rgb(0, 0, 255); stroke-opacity: 1; stroke-width: 2px; opacity: 1;"/></g><g class="points"/><g class="text"/></g><g class="trace scatter tracebd5915" style="stroke-miterlimit: 2; opacity: 1;"><g class="fills"/><g class="errorbars"/><g class="lines"><path class="js-line" d="M0,199.85L30,38.54L60,107L90,103.5L120,132.05L150,117.69L180,265.65L210,344.13L240,346.14L300,358.83L330,360.33L360,359.16L390,359.83L420,359.5L450,358.33L480,357.99L510,359.16L540,359.83" style="vector-effect: none; fill: none; stroke: rgb(0, 0, 255); stroke-opacity: 1; stroke-dasharray: 9px, 9px; stroke-width: 2px; opacity: 1;"/></g><g class="points"/><g class="text"/></g><g class="trace scatter tracea5ad01" style="stroke-miterlimit: 2; opacity: 1;"><g class="fills"/><g class="errorbars"/><g class="lines"><path class="js-line" d="M0,189.5L30,40.54L60,101.49L90,96.65L120,134.89L150,117.36L180,274.83L210,346.97L240,347.64L270,355.16L300,359.33L330,361L360,359L480,359.16L510,359.83L540,360.17" style="vector-effect: none; fill: none; stroke: rgb(0, 0, 255); stroke-opacity: 1; stroke-dasharray: 3px, 3px; stroke-width: 2px; opacity: 1;"/></g><g class="points"/><g class="text"/></g><g class="trace scatter trace076aa6" style="stroke-miterlimit: 2; opacity: 1;"><g class="fills"/><g class="errorbars"/><g class="lines"/><g class="points"/><g class="text"/></g><g class="trace scatter tracee6bb21" style="stroke-miterlimit: 2; opacity: 1;"><g class="fills"/><g class="errorbars"/><g class="lines"/><g class="points"/><g class="text"/></g><g class="trace scatter tracec8dbd5" style="stroke-miterlimit: 2; opacity: 1;"><g class="fills"/><g class="errorbars"/><g class="lines"/><g class="points"/><g class="text"/></g></g></g><g class="xy2" transform="translate(80,40)" clip-path="url(#clip5b7474xy2plot)"><g class="scatterlayer mlayer"><g class="trace scatter trace6b79f4" style="stroke-miterlimit: 2; opacity: 1;"><g class="fills"/><g class="errorbars"/><g class="lines"><path class="js-line" d="M0,54.58L30,105.92L60,183.27L90,263.64L120,317.98L150,340.29L180,351.62L210,340.29L240,336.04L270,320.82L300,328.25L330,309.84L360,270.01L390,285.24L420,268.77L450,278.86L480,338.87L510,263.29L540,230.71" style="vector-effect: none; fill: none; stroke: rgb(0, 128, 0); stroke-opacity: 1; stroke-width: 2px; opacity: 1;"/></g><g class="points"/><g class="text"/></g><g class="trace scatter trace242b0e" style="stroke-miterlimit: 2; opacity: 1;"><g class="fills"/><g class="errorbars"/><g class="lines"><path class="js-line" d="M0,19L30,100.07L60,186.11L90,266.65L120,320.29L150,344.36L180,352.15L210,361L240,355.16L270,306.48L300,331.08L330,326.13L360,267.53L390,325.42L420,284.53L450,322.06L480,263.82L510,308.78L540,276.03" style="vector-effect: none; fill: none; stroke: rgb(0, 128, 0); stroke-opacity: 1; stroke-dasharray: 9px, 9px; stroke-width: 2px; opacity: 1;"/></g><g class="points"/><g class="text"/></g><g class="trace scatter trace8f7f7e" style="stroke-miterlimit: 2; opacity: 1;"><g class="fills"/><g class="errorbars"/><g class="lines"><path class="js-line" d="M0,22.54L30,106.27L60,185.57L90,261.87L120,323.83L150,341.35L180,353.21L210,336.22L240,324.71L270,310.9L300,274.97L330,320.11L360,231.78L390,297.45L420,249.83L450,242.04L480,291.79L510,340.64L540,277.62" style="vector-effect: none; fill: none; stroke: rgb(0, 128, 0); stroke-opacity: 1; stroke-dasharray: 3px, 3px; stroke-width: 2px; opacity: 1;"/></g><g class="points"/><g class="text"/></g></g></g></g><g class="zerolinelayer-above"/><path class="xlines-above crisp" d="M79,420.5H621" style="fill: none; stroke-width: 1px; stroke: rgb(0, 0, 0); stroke-opacity: 1;"/><path class="ylines-above crisp" d="M79.5,40V420" style="fill: none; stroke-width: 1px; stroke: rgb(0, 0, 255); stroke-opacity: 1;"/><g class="overlines-above"><path class="xy2-x crisp" d="M0,0" style="fill: none;"/><path class="xy2-y crisp" d="M620.5,40V420" style="fill: none; stroke-width: 1px; stroke: rgb(0, 128, 0); stroke-opacity: 1;"/></g><g class="xaxislayer-above"><g class="xtick"><text text-anchor="middle" x="0" y="435.4" transform="translate(95,0)" style="font-family: 'Times New Roman'; font-size: 12px; fill: rgb(0, 0, 0); fill-opacity: 1; white-space: pre;">10</text></g><g class="xtick"><text text-anchor="middle" x="0" y="435.4" style="font-family: 'Times New Roman'; font-size: 12px; fill: rgb(0, 0, 0); fill-opacity: 1; white-space: pre;" transform="translate(125,0)">20</text></g><g class="xtick"><text text-anchor="middle" x="0" y="435.4" style="font-family: 'Times New Roman'; font-size: 12px; fill: rgb(0, 0, 0); fill-opacity: 1; white-space: pre;" transform="translate(155,0)">30</text></g><g class="xtick"><text text-anchor="middle" x="0" y="435.4" style="font-family: 'Times New Roman'; font-size: 12px; fill: rgb(0, 0, 0); fill-opacity: 1; white-space: pre;" transform="translate(185,0)">40</text></g><g class="xtick"><text text-anchor="middle" x="0" y="435.4" style="font-family: 'Times New Roman'; font-size: 12px; fill: rgb(0, 0, 0); fill-opacity: 1; white-space: pre;" transform="translate(215,0)">50</text></g><g class="xtick"><text text-anchor="middle" x="0" y="435.4" style="font-family: 'Times New Roman'; font-size: 12px; fill: rgb(0, 0, 0); fill-opacity: 1; white-space: pre;" transform="translate(245,0)">60</text></g><g class="xtick"><text text-anchor="middle" x="0" y="435.4" style="font-family: 'Times New Roman'; font-size: 12px; fill: rgb(0, 0, 0); fill-opacity: 1; white-space: pre;" transform="translate(275,0)">70</text></g><g class="xtick"><text text-anchor="middle" x="0" y="435.4" style="font-family: 'Times New Roman'; font-size: 12px; fill: rgb(0, 0, 0); fill-opacity: 1; white-space: pre;" transform="translate(305,0)">80</text></g><g class="xtick"><text text-anchor="middle" x="0" y="435.4" style="font-family: 'Times New Roman'; font-size: 12px; fill: rgb(0, 0, 0); fill-opacity: 1; white-space: pre;" transform="translate(335,0)">90</text></g><g class="xtick"><text text-anchor="middle" x="0" y="435.4" style="font-family: 'Times New Roman'; font-size: 12px; fill: rgb(0, 0, 0); fill-opacity: 1; white-space: pre;" transform="translate(365,0)">100</text></g><g class="xtick"><text text-anchor="middle" x="0" y="435.4" style="font-family: 'Times New Roman'; font-size: 12px; fill: rgb(0, 0, 0); fill-opacity: 1; white-space: pre;" transform="translate(395,0)">110</text></g><g class="xtick"><text text-anchor="middle" x="0" y="435.4" style="font-family: 'Times New Roman'; font-size: 12px; fill: rgb(0, 0, 0); fill-opacity: 1; white-space: pre;" transform="translate(425,0)">120</text></g><g class="xtick"><text text-anchor="middle" x="0" y="435.4" style="font-family: 'Times New Roman'; font-size: 12px; fill: rgb(0, 0, 0); fill-opacity: 1; white-space: pre;" transform="translate(455,0)">130</text></g><g class="xtick"><text text-anchor="middle" x="0" y="435.4" style="font-family: 'Times New Roman'; font-size: 12px; fill: rgb(0, 0, 0); fill-opacity: 1; white-space: pre;" transform="translate(485,0)">140</text></g><g class="xtick"><text text-anchor="middle" x="0" y="435.4" style="font-family: 'Times New Roman'; font-size: 12px; fill: rgb(0, 0, 0); fill-opacity: 1; white-space: pre;" transform="translate(515,0)">150</text></g><g class="xtick"><text text-anchor="middle" x="0" y="435.4" style="font-family: 'Times New Roman'; font-size: 12px; fill: rgb(0, 0, 0); fill-opacity: 1; white-space: pre;" transform="translate(545,0)">160</text></g><g class="xtick"><text text-anchor="middle" x="0" y="435.4" style="font-family: 'Times New Roman'; font-size: 12px; fill: rgb(0, 0, 0); fill-opacity: 1; white-space: pre;" transform="translate(575,0)">170</text></g><g class="xtick"><text text-anchor="middle" x="0" y="435.4" style="font-family: 'Times New Roman'; font-size: 12px; fill: rgb(0, 0, 0); fill-opacity: 1; white-space: pre;" transform="translate(605,0)">180</text></g></g><g class="yaxislayer-above"><g class="ytick"><text text-anchor="end" x="76.6" y="4.199999999999999" transform="translate(0,403.67)" style="font-family: 'Times New Roman'; font-size: 12px; fill: rgb(0, 0, 255); fill-opacity: 1; white-space: pre;">0</text></g><g class="ytick"><text text-anchor="end" x="76.6" y="4.199999999999999" style="font-family: 'Times New Roman'; font-size: 12px; fill: rgb(0, 0, 255); fill-opacity: 1; white-space: pre;" transform="translate(0,320.18)">5</text></g><g class="ytick"><text text-anchor="end" x="76.6" y="4.199999999999999" style="font-family: 'Times New Roman'; font-size: 12px; fill: rgb(0, 0, 255); fill-opacity: 1; white-space: pre;" transform="translate(0,236.68)">10</text></g><g class="ytick"><text text-anchor="end" x="76.6" y="4.199999999999999" style="font-family: 'Times New Roman'; font-size: 12px; fill: rgb(0, 0, 255); fill-opacity: 1; white-space: pre;" transform="translate(0,153.18)">15</text></g><g class="ytick"><text text-anchor="end" x="76.6" y="4.199999999999999" style="font-family: 'Times New Roman'; font-size: 12px; fill: rgb(0, 0, 255); fill-opacity: 1; white-space: pre;" transform="translate(0,69.69)">20</text></g></g><g class="overaxes-above"><g class="xy2-x"/><g class="xy2-y"><g class="y2tick"><text text-anchor="start" x="623.4" y="4.199999999999999" transform="translate(0,346.12)" style="font-family: 'Times New Roman'; font-size: 12px; fill: rgb(0, 128, 0); fill-opacity: 1; white-space: pre;">5</text></g><g class="y2tick"><text text-anchor="start" x="623.4" y="4.199999999999999" style="font-family: 'Times New Roman'; font-size: 12px; fill: rgb(0, 128, 0); fill-opacity: 1; white-space: pre;" transform="translate(0,257.61)">10</text></g><g class="y2tick"><text text-anchor="start" x="623.4" y="4.199999999999999" style="font-family: 'Times New Roman'; font-size: 12px; fill: rgb(0, 128, 0); fill-opacity: 1; white-space: pre;" transform="translate(0,169.11)">15</text></g><g class="y2tick"><text text-anchor="start" x="623.4" y="4.199999999999999" style="font-family: 'Times New Roman'; font-size: 12px; fill: rgb(0, 128, 0); fill-opacity: 1; white-space: pre;" transform="translate(0,80.6)">20</text></g></g></g></g><g class="subplot xy2"/></g><g class="polarlayer"/><g class="smithlayer"/><g class="ternarylayer"/><g class="geolayer"/><g class="funnelarealayer"/><g class="pielayer"/><g class="iciclelayer"/><g class="treemaplayer"/><g class="sunburstlayer"/><g class="glimages"/><defs id="topdefs-5b7474"><g class="clips"/><clipPath id="legend5b7474"><rect width="95" height="67" x="0" y="0"/></clipPath></defs><g class="layer-above"><g class="imagelayer"/><g class="shapelayer"/></g><g class="infolayer"><g class="legend" pointer-events="all" transform="translate(519.6,36.199999999999996)"><rect class="bg" shape-rendering="crispEdges" style="stroke: rgb(68, 68, 68); stroke-opacity: 1; fill: rgb(255, 255, 255); fill-opacity: 0.5; stroke-width: 0px;" width="95" height="67" x="0" y="0"/><g class="scrollbox" transform="" clip-path="url(#legend5b7474)"><g class="groups"><g class="traces" transform="translate(0,14.5)" style="opacity: 1;"><text class="legendtext" text-anchor="start" x="40" y="4.29" style="font-family: 'Times New Roman'; font-size: 11px; fill: rgb(0, 0, 0); fill-opacity: 1; white-space: pre;">2018–2019</text><g class="layers" style="opacity: 1;"><g class="legendfill"/><g class="legendlines"><path class="js-line" d="M5,0h30" style="fill: none; stroke: rgb(0, 0, 0); stroke-opacity: 1; stroke-width: 2px;"/></g><g class="legendsymbols"><g class="legendpoints"/></g></g><rect class="legendtoggle" x="0" y="-9.5" width="89.5" height="19" style="fill: rgb(0, 0, 0); fill-opacity: 0;"/></g><g class="traces" transform="translate(0,33.5)" style="opacity: 1;"><text class="legendtext" text-anchor="start" x="40" y="4.29" style="font-family: 'Times New Roman'; font-size: 11px; fill: rgb(0, 0, 0); fill-opacity: 1; white-space: pre;">2018–2019</text><g class="layers" style="opacity: 1;"><g class="legendfill"/><g class="legendlines"><path class="js-line" d="M5,0h30" style="fill: none; stroke: rgb(0, 0, 0); stroke-opacity: 1; stroke-dasharray: 9px, 9px; stroke-width: 2px;"/></g><g class="legendsymbols"><g class="legendpoints"/></g></g><rect class="legendtoggle" x="0" y="-9.5" width="89.5" height="19" style="fill: rgb(0, 0, 0); fill-opacity: 0;"/></g><g class="traces" transform="translate(0,52.5)" style="opacity: 1;"><text class="legendtext" text-anchor="start" x="40" y="4.29" style="font-family: 'Times New Roman'; font-size: 11px; fill: rgb(0, 0, 0); fill-opacity: 1; white-space: pre;">2018–2019</text><g class="layers" style="opacity: 1;"><g class="legendfill"/><g class="legendlines"><path class="js-line" d="M5,0h30" style="fill: none; stroke: rgb(0, 0, 0); stroke-opacity: 1; stroke-dasharray: 3px, 3px; stroke-width: 2px;"/></g><g class="legendsymbols"><g class="legendpoints"/></g></g><rect class="legendtoggle" x="0" y="-9.5" width="89.5" height="19" style="fill: rgb(0, 0, 0); fill-opacity: 0;"/></g></g></g><rect class="scrollbar" rx="20" ry="3" width="0" height="0" style="fill: rgb(128, 139, 164); fill-opacity: 1;" x="0" y="0"/></g><g class="g-gtitle"><text class="gtitle" x="350" y="20" text-anchor="middle" dy="0em" style="opacity: 1; font-family: 'Times New Roman'; font-size: 17px; fill: rgb(0, 0, 0); fill-opacity: 1; white-space: pre;">Goal Rate per Distance (2018-2021)</text></g><g class="g-xtitle"><text class="xtitle" x="350" y="462.700390625" text-anchor="middle" style="opacity: 1; font-family: 'Times New Roman'; font-size: 14px; fill: rgb(0, 0, 0); fill-opacity: 1; white-space: pre;">Distance (ft)</text></g><g class="g-ytitle"><text class="ytitle" transform="rotate(-90,45.199609375,230)" x="45.199609375" y="230" text-anchor="middle" style="opacity: 1; font-family: 'Times New Roman'; font-size: 14px; fill: rgb(0, 0, 255); fill-opacity: 1; white-space: pre;">Rate of Shots (%)</text></g><g class="g-y2title"><text class="y2title" transform="rotate(-90,659.700390625,230)" x="659.700390625" y="230" text-anchor="middle" style="opacity: 1; font-family: 'Times New Roman'; font-size: 14px; fill: rgb(0, 128, 0); fill-opacity: 1; white-space: pre;">Rate of Goals (%)</text></g></g></svg>